<svg width="167" height="61" viewBox="0 0 167 61" fill="none" xmlns="http://www.w3.org/2000/svg">
<g clip-path="url(#clip0_82_558)">
<mask id="mask0_82_558" style="mask-type:alpha" maskUnits="userSpaceOnUse" x="113" y="0" width="30" height="27">
<path d="M117.294 26.8518C116.654 26.8361 116.027 26.6655 115.466 26.3543C113.534 25.2831 112.83 22.8376 113.894 20.8921L120.611 8.604C123.299 3.68728 128.43 0.633156 134.002 0.633156H142.717C142.749 0.633156 142.78 0.641083 142.808 0.656249C142.9 0.706592 142.934 0.822807 142.884 0.915813L133.094 19.1288C130.454 24.0409 125.302 27.0475 119.758 26.9119L117.294 26.8518Z" fill="white"/>
</mask>
<g mask="url(#mask0_82_558)">
<path fill-rule="evenodd" clip-rule="evenodd" d="M11.0608 73.3404H173.608V-18.9575H11.0608V73.3404Z" fill="url(#paint0_linear_82_558)"/>
</g>
<mask id="mask1_82_558" style="mask-type:alpha" maskUnits="userSpaceOnUse" x="93" y="0" width="33" height="27">
<path d="M93.283 0H101.998C107.575 0 112.715 3.04078 115.432 7.94694L125.425 25.9958C124.094 26.3704 123.076 26.6 122.372 26.6846C121.059 26.8422 120.041 26.8665 118.423 26.8665C111.635 26.8665 105.392 23.1206 102.16 17.1079L93.1158 0.282657C93.0658 0.18967 93.1001 0.0734553 93.1925 0.0230936C93.2203 0.00794681 93.2514 0 93.283 0Z" fill="white"/>
</mask>
<g mask="url(#mask1_82_558)">
<path fill-rule="evenodd" clip-rule="evenodd" d="M11.6312 73.1489H174.179V-19.1489H11.6312V73.1489Z" fill="url(#paint1_linear_82_558)"/>
</g>
</g>
<g clip-path="url(#clip1_82_558)">
<path d="M22.1127 53.5594H15.712V42.3044C15.712 41.3204 15.6091 40.4935 15.4033 39.8238C15.1975 39.1541 14.9093 38.6176 14.5389 38.2145C14.1684 37.8113 13.7259 37.5208 13.2114 37.3432C12.6969 37.1655 12.1309 37.0767 11.5134 37.0767C10.7314 37.0767 10.0248 37.2236 9.39359 37.5174C8.76243 37.8113 8.2239 38.2145 7.77797 38.727C7.33205 39.2395 6.99246 39.8511 6.75921 40.5618C6.52595 41.2725 6.40933 42.0447 6.40933 42.8784V53.5594H0.0497589V32.2999H5.17446L5.5655 33.9195C6.00457 33.6052 6.49165 33.3079 7.02676 33.0277C7.56187 32.7475 8.12442 32.5049 8.71442 32.2999C9.30441 32.0949 9.91155 31.9309 10.5358 31.8079C11.1601 31.6849 11.7947 31.6234 12.4396 31.6234C14.141 31.6234 15.6022 31.866 16.8234 32.3512C18.0445 32.8364 19.0461 33.5334 19.8282 34.4423C20.6103 35.3512 21.1866 36.4548 21.557 37.7532C21.9275 39.0516 22.1127 40.5208 22.1127 42.1609V53.5594ZM22.9456 42.9399C22.9456 41.3819 23.2337 39.916 23.81 38.5425C24.3863 37.1689 25.1992 35.9696 26.2489 34.9446C27.2985 33.9195 28.5471 33.1097 29.9946 32.5152C31.4422 31.9207 33.0441 31.6234 34.8003 31.6234C36.5703 31.6234 38.1859 31.9207 39.6472 32.5152C41.1085 33.1097 42.3639 33.9195 43.4135 34.9446C44.4632 35.9696 45.2795 37.1689 45.8627 38.5425C46.4458 39.916 46.7374 41.3819 46.7374 42.9399L46.736 43.1506C46.7312 43.4885 46.7145 43.76 46.6859 43.965C46.6516 44.211 46.6139 44.457 46.5727 44.703H29.264C29.4424 45.3727 29.7202 45.9741 30.0975 46.5071C30.4749 47.0401 30.9139 47.4946 31.4147 47.8704C31.9155 48.2463 32.4575 48.5367 33.0406 48.7417C33.6238 48.9467 34.2241 49.0492 34.8415 49.0492C35.8431 49.0492 36.7144 48.8374 37.4553 48.4137C38.1962 47.99 38.7588 47.4502 39.1429 46.7941H46.017C45.7015 47.7235 45.2212 48.6358 44.5764 49.531C43.9315 50.4262 43.1357 51.2223 42.189 51.9194C41.2422 52.6164 40.148 53.1768 38.9063 53.6004C37.6645 54.0241 36.2959 54.236 34.8003 54.236C33.0578 54.236 31.4593 53.9387 30.0049 53.3442C28.5505 52.7497 27.3019 51.9399 26.2592 50.9148C25.2164 49.8898 24.4034 48.6905 23.8203 47.3169C23.2372 45.9433 22.9456 44.4844 22.9456 42.9399ZM34.8415 36.6461C33.5106 36.6461 32.3855 36.981 31.4662 37.6507C30.5469 38.3204 29.8814 39.2019 29.4698 40.2953H39.9662C39.5683 39.2156 38.9371 38.3375 38.0727 37.6609C37.2083 36.9844 36.1312 36.6461 34.8415 36.6461ZM51.2337 26.4366L55.8027 26.3956V32.2999H61.9976V37.7327H55.8027V45.195C55.8027 45.8511 55.8816 46.3943 56.0394 46.8249C56.1972 47.2554 56.4098 47.5971 56.6774 47.8499C56.9449 48.1028 57.264 48.277 57.6344 48.3727C58.0049 48.4684 58.4028 48.5162 58.8281 48.5162H62.3887L62.3475 53.703H58.2107C57.017 53.703 55.8885 53.597 54.8251 53.3852C53.7617 53.1733 52.8322 52.7633 52.0363 52.1551C51.2405 51.5469 50.6128 50.6927 50.1532 49.5925C49.6935 48.4923 49.4637 47.047 49.4637 45.2565V37.7327H46.0678V32.8945L49.2991 31.6644L51.2337 26.4366ZM63.6537 32.2999H70.0544V53.5594H63.6537V32.2999ZM63.098 26.5801C63.098 26.1291 63.1872 25.6986 63.3656 25.2886C63.544 24.8786 63.8012 24.5198 64.1374 24.2123C64.4735 23.9048 64.8749 23.6622 65.3414 23.4845C65.8079 23.3068 66.3293 23.218 66.9055 23.218C67.4818 23.218 68.0032 23.3068 68.4697 23.4845C68.9362 23.6622 69.3375 23.9048 69.6737 24.2123C70.0099 24.5198 70.2671 24.8786 70.4455 25.2886C70.6239 25.6986 70.713 26.1291 70.713 26.5801C70.713 27.0448 70.6239 27.4788 70.4455 27.882C70.2671 28.2851 70.0099 28.6371 69.6737 28.9378C69.3375 29.2384 68.9328 29.4776 68.4594 29.6553C67.986 29.833 67.4612 29.9218 66.885 29.9218C66.3224 29.9218 65.8079 29.833 65.3414 29.6553C64.8749 29.4776 64.477 29.235 64.1477 28.9275C63.8184 28.62 63.5611 28.2646 63.3759 27.8615C63.1906 27.4583 63.098 27.0312 63.098 26.5801ZM71.9781 42.9399C71.9781 41.3819 72.2457 39.916 72.7808 38.5425C73.3159 37.1689 74.0774 35.9696 75.0653 34.9446C76.0532 33.9195 77.2537 33.1097 78.667 32.5152C80.0802 31.9207 81.665 31.6234 83.4212 31.6234C84.8345 31.6234 86.1036 31.8523 87.2287 32.3102C88.3538 32.768 89.3074 33.3113 90.0895 33.94L90.3571 32.2999H95.7699V53.5594H90.3571L90.0689 51.9399C89.2731 52.5686 88.3161 53.1084 87.1979 53.5594C86.0796 54.0105 84.8207 54.236 83.4212 54.236C81.6787 54.236 80.1008 53.9387 78.6876 53.3442C77.2743 52.7497 76.0703 51.9433 75.0756 50.9251C74.0808 49.9068 73.3159 48.711 72.7808 47.3374C72.2457 45.9638 71.9781 44.498 71.9781 42.9399ZM78.3377 42.9194C78.3377 43.8078 78.4886 44.6142 78.7905 45.3386C79.0923 46.0629 79.5005 46.6848 80.015 47.2041C80.5296 47.7235 81.1333 48.1233 81.8262 48.4034C82.5191 48.6836 83.2566 48.8237 84.0387 48.8237C84.8207 48.8237 85.5582 48.6836 86.2511 48.4034C86.944 48.1233 87.5477 47.7269 88.0623 47.2144C88.5768 46.7019 88.9816 46.08 89.2766 45.3488C89.5715 44.6176 89.719 43.8078 89.719 42.9194C89.719 42.0447 89.5681 41.2486 89.2663 40.5311C88.9644 39.8135 88.5562 39.1985 88.0417 38.686C87.5272 38.1735 86.9234 37.7771 86.2305 37.4969C85.5376 37.2167 84.8002 37.0767 84.0181 37.0767C83.2223 37.0767 82.4779 37.2167 81.785 37.4969C81.0921 37.7771 80.4918 38.1735 79.9842 38.686C79.4765 39.1985 79.0752 39.8135 78.7802 40.5311C78.4852 41.2486 78.3377 42.0447 78.3377 42.9194ZM122.35 42.9194C122.35 44.4775 122.089 45.9433 121.568 47.3169C121.046 48.6905 120.299 49.8898 119.324 50.9148C118.35 51.9399 117.163 52.7497 115.764 53.3442C114.364 53.9387 112.786 54.236 111.03 54.236C109.74 54.236 108.591 54.0617 107.583 53.7132C106.574 53.3647 105.686 52.9102 104.918 52.3499V60.8168H98.558V32.2999H103.683L104.094 34.104C104.492 33.776 104.935 33.4616 105.422 33.161C105.909 32.8603 106.441 32.5972 107.017 32.3717C107.593 32.1462 108.207 31.9651 108.859 31.8284C109.511 31.6917 110.2 31.6234 110.927 31.6234C112.67 31.6234 114.244 31.9207 115.651 32.5152C117.057 33.1097 118.258 33.9161 119.252 34.9343C120.247 35.9525 121.012 37.1484 121.547 38.522C122.082 39.8955 122.35 41.3614 122.35 42.9194ZM115.97 42.9399C115.97 42.0516 115.822 41.2452 115.527 40.5208C115.232 39.7964 114.827 39.1746 114.313 38.6552C113.798 38.1359 113.195 37.7361 112.502 37.4559C111.809 37.1757 111.071 37.0357 110.289 37.0357C109.493 37.0357 108.752 37.1757 108.066 37.4559C107.38 37.7361 106.78 38.1325 106.266 38.645C105.751 39.1575 105.346 39.7794 105.051 40.5106C104.756 41.2418 104.609 42.0516 104.609 42.9399C104.609 43.8146 104.76 44.6108 105.062 45.3283C105.363 46.0458 105.772 46.6609 106.286 47.1734C106.801 47.6859 107.404 48.0823 108.097 48.3624C108.79 48.6426 109.528 48.7827 110.31 48.7827C111.106 48.7827 111.85 48.6426 112.543 48.3624C113.236 48.0823 113.836 47.6893 114.344 47.1836C114.851 46.6779 115.249 46.0663 115.537 45.3488C115.826 44.6313 115.97 43.8283 115.97 42.9399ZM147.592 42.9194C147.592 44.4775 147.331 45.9433 146.81 47.3169C146.288 48.6905 145.541 49.8898 144.566 50.9148C143.592 51.9399 142.405 52.7497 141.006 53.3442C139.606 53.9387 138.028 54.236 136.272 54.236C134.982 54.236 133.833 54.0617 132.825 53.7132C131.816 53.3647 130.928 52.9102 130.16 52.3499V60.8168H123.8V32.2999H128.925L129.336 34.104C129.734 33.776 130.177 33.4616 130.664 33.161C131.151 32.8603 131.683 32.5972 132.259 32.3717C132.835 32.1462 133.449 31.9651 134.101 31.8284C134.753 31.6917 135.442 31.6234 136.169 31.6234C137.912 31.6234 139.486 31.9207 140.893 32.5152C142.299 33.1097 143.5 33.9161 144.494 34.9343C145.489 35.9525 146.254 37.1484 146.789 38.522C147.324 39.8955 147.592 41.3614 147.592 42.9194ZM141.212 42.9399C141.212 42.0516 141.064 41.2452 140.769 40.5208C140.474 39.7964 140.069 39.1746 139.555 38.6552C139.04 38.1359 138.437 37.7361 137.744 37.4559C137.051 37.1757 136.313 37.0357 135.531 37.0357C134.735 37.0357 133.995 37.1757 133.309 37.4559C132.622 37.7361 132.022 38.1325 131.508 38.645C130.993 39.1575 130.588 39.7794 130.293 40.5106C129.998 41.2418 129.851 42.0516 129.851 42.9399C129.851 43.8146 130.002 44.6108 130.304 45.3283C130.606 46.0458 131.014 46.6609 131.528 47.1734C132.043 47.6859 132.646 48.0823 133.339 48.3624C134.032 48.6426 134.77 48.7827 135.552 48.7827C136.348 48.7827 137.092 48.6426 137.785 48.3624C138.478 48.0823 139.078 47.6893 139.586 47.1836C140.093 46.6779 140.491 46.0663 140.779 45.3488C141.068 44.6313 141.212 43.8283 141.212 42.9399ZM153.57 46.9171C153.625 47.5595 153.958 48.0788 154.568 48.4752C155.179 48.8716 155.951 49.0697 156.884 49.0697C158.091 49.0697 158.962 48.9126 159.497 48.5982C160.032 48.2839 160.3 47.8397 160.3 47.2656C160.3 46.924 160.177 46.6472 159.93 46.4354C159.683 46.2235 159.319 46.0356 158.839 45.8716C158.395 45.7202 157.859 45.5804 157.228 45.4523L156.604 45.328C156.017 45.2091 155.363 45.0691 154.64 44.908C154.229 44.826 153.776 44.7269 153.282 44.6108C152.788 44.4946 152.297 44.3374 151.81 44.1392C151.323 43.9411 150.853 43.6951 150.4 43.4012C149.948 43.1074 149.546 42.7418 149.196 42.3044C148.847 41.867 148.569 41.3443 148.363 40.7361C148.157 40.1279 148.054 39.4138 148.054 38.5937C148.054 37.514 148.25 36.5402 148.641 35.6723C149.032 34.8045 149.625 34.0733 150.421 33.4787C151.217 32.8842 152.218 32.4263 153.426 32.1052C154.633 31.784 156.053 31.6234 157.686 31.6234C159.017 31.6234 160.214 31.7942 161.278 32.1359C162.341 32.4776 163.243 32.9628 163.984 33.5915C164.725 34.2202 165.291 34.9685 165.682 35.8363C166.073 36.7042 166.269 37.6575 166.269 38.6962L159.888 38.6757C159.847 38.1564 159.6 37.7088 159.147 37.3329C158.695 36.9571 158.057 36.7691 157.233 36.7691C156.259 36.7691 155.539 36.9468 155.072 37.3022C154.606 37.6575 154.38 38.0675 154.393 38.5322C154.393 38.8056 154.472 39.0345 154.63 39.219C154.788 39.4035 155.035 39.5607 155.371 39.6905C155.707 39.8204 156.136 39.9331 156.657 40.0288L156.905 40.073C157.373 40.1539 157.915 40.2349 158.53 40.3158C159.655 40.5072 160.725 40.7361 161.741 41.0026C162.756 41.2691 163.651 41.6381 164.427 42.1096C165.202 42.5812 165.816 43.1962 166.269 43.9547C166.721 44.7133 166.948 45.6734 166.948 46.8351C166.948 48.1062 166.694 49.2098 166.186 50.146C165.679 51.0822 164.969 51.8579 164.056 52.4729C163.144 53.0879 162.056 53.5424 160.794 53.8362C159.532 54.1301 158.146 54.277 156.637 54.277C154.99 54.277 153.58 54.0583 152.407 53.6209C151.234 53.1836 150.27 52.613 149.516 51.9091C148.761 51.2052 148.205 50.4125 147.848 49.531C147.492 48.6495 147.313 47.7713 147.313 46.8966L153.57 46.9171Z" fill="white"/>
</g>
<defs>
<linearGradient id="paint0_linear_82_558" x1="128.153" y1="26.9163" x2="128.153" y2="0.633157" gradientUnits="userSpaceOnUse">
<stop stop-color="#FF0300"/>
<stop offset="1" stop-color="#AA0108"/>
</linearGradient>
<linearGradient id="paint1_linear_82_558" x1="109.259" y1="3.76882e-06" x2="109.259" y2="26.8665" gradientUnits="userSpaceOnUse">
<stop stop-color="#FF0300"/>
<stop offset="1" stop-color="#AA0108"/>
</linearGradient>
<clipPath id="clip0_82_558">
<rect width="50" height="27" fill="white" transform="translate(93)"/>
</clipPath>
<clipPath id="clip1_82_558">
<rect width="167" height="38" fill="white" transform="translate(0 23)"/>
</clipPath>
</defs>
</svg>
